<svg width="56" height="56" viewBox="0 0 56 56" fill="none" xmlns="http://www.w3.org/2000/svg">
<path fill-rule="evenodd" clip-rule="evenodd" d="M16.2715 3.74379C17.26 3.31153 17.7109 2.15979 17.2787 1.17129C16.8464 0.182798 15.6947 -0.268119 14.7062 0.164141C8.82817 2.73454 3.84064 6.95545 0.326961 12.2401C-0.270384 13.1385 -0.0263188 14.351 0.872095 14.9484C1.77051 15.5457 2.98306 15.3017 3.58041 14.4032C6.68316 9.73665 11.0874 6.01077 16.2715 3.74379ZM41.2938 0.164141C40.3053 -0.268119 39.1536 0.182798 38.7213 1.17129C38.2891 2.15979 38.74 3.31153 39.7285 3.74379C44.9126 6.01077 49.3168 9.73665 52.4196 14.4032C53.0169 15.3017 54.2295 15.5457 55.1279 14.9484C56.0263 14.351 56.2704 13.1385 55.673 12.2401C52.1594 6.95545 47.1718 2.73454 41.2938 0.164141ZM46.2108 45.3675C49.4819 41.3373 51.4421 36.2001 51.4421 30.605C51.4421 17.6585 40.9469 7.16334 28.0004 7.16334C15.0539 7.16334 4.55873 17.6585 4.55873 30.605C4.55873 36.2001 6.51892 41.3373 9.79002 45.3675L5.45959 53.091C4.93196 54.0321 5.26711 55.2227 6.20816 55.7503C7.14921 56.2779 8.33981 55.9428 8.86744 55.0017L12.6248 48.3002C16.7407 51.8797 22.1175 54.0467 28.0004 54.0467C33.8834 54.0467 39.2601 51.8796 43.376 48.3002L47.1337 55.0018C47.6614 55.9428 48.852 56.2779 49.793 55.7503C50.7341 55.2226 51.0692 54.032 50.5415 53.091L46.2108 45.3675ZM37.1002 23.9258C37.9121 24.6363 37.9944 25.8704 37.2839 26.6824L29.8089 35.2253C28.2026 37.061 25.4359 37.3068 23.5311 35.783L18.9657 32.1307C18.1232 31.4567 17.9866 30.2274 18.6606 29.3849C19.3346 28.5425 20.5639 28.4059 21.4063 29.0798L25.9718 32.7322C26.2439 32.9499 26.6391 32.9148 26.8686 32.6525L34.3436 24.1096C35.0541 23.2977 36.2882 23.2154 37.1002 23.9258Z" fill="#073BA1"/>
</svg>
