<svg width="24" height="24" viewBox="0 0 24 24" fill="none" xmlns="http://www.w3.org/2000/svg">
<g clip-path="url(#clip0_633_10575)">
<path d="M9.85747 8.18604C11.0337 6.9859 12.9663 6.98589 14.1425 8.18604L14.9698 9.03015L15.814 9.85747C17.0141 11.0337 17.0141 12.9663 15.814 14.1425L14.9698 14.9698L14.1425 15.814C12.9663 17.0141 11.0337 17.0141 9.85747 15.814L9.03015 14.9698L8.18604 14.1425C6.98589 12.9663 6.9859 11.0337 8.18604 9.85747L9.03015 9.03015L9.85747 8.18604Z" fill="#EC3D5A"/>
<path d="M17.5826 6.41029L17.5825 6.41036L17.5897 6.41739L20.0066 8.7862C21.8068 10.5506 21.8068 13.4494 20.0066 15.2138L17.5897 17.5826L17.5896 17.5825L17.5826 17.5897L15.2138 20.0066C13.4494 21.8068 10.5506 21.8068 8.7862 20.0066L6.41739 17.5897L6.41746 17.5896L6.41029 17.5826L3.99337 15.2138C2.19316 13.4494 2.19317 10.5506 3.99338 8.7862L6.41029 6.41739L6.41036 6.41746L6.41739 6.41029L8.7862 3.99338C10.5506 2.19317 13.4494 2.19316 15.2138 3.99338L17.5826 6.41029Z" stroke="#EC3D5A"/>
</g>
<defs>
<clipPath id="clip0_633_10575">
<rect width="24" height="24" fill="white"/>
</clipPath>
</defs>
</svg>
